<?xml version="1.0" standalone="no"?>
<!DOCTYPE svg PUBLIC "-//W3C//DTD SVG 20010904//EN"
 "http://www.w3.org/TR/2001/REC-SVG-20010904/DTD/svg10.dtd">
<svg version="1.0" xmlns="http://www.w3.org/2000/svg"
 width="1200.000000pt" height="1200.000000pt" viewBox="0 0 1200.000000 1200.000000"
 preserveAspectRatio="xMidYMid meet">

<g transform="translate(0.000000,1200.000000) scale(0.100000,-0.100000)"
fill="#C70101" stroke="none">
<path d="M5600 11799 c-812 -60 -1566 -271 -2269 -635 -1719 -891 -2888 -2584
-3105 -4499 -30 -263 -39 -466 -33 -775 7 -388 27 -595 93 -952 318 -1749
1452 -3277 3045 -4102 1022 -529 2169 -739 3334 -610 1230 136 2420 690 3321
1545 1344 1276 1992 3050 1788 4894 -216 1955 -1453 3701 -3234 4564 -682 330
-1377 514 -2155 571 -159 11 -628 11 -785 -1z m545 -2984 c145 -38 47 54 1823
-1719 1082 -1081 1657 -1661 1683 -1701 71 -108 102 -259 80 -391 -7 -39 -30
-106 -53 -154 -39 -82 -49 -94 -307 -351 -285 -284 -319 -310 -447 -343 -78
-20 -213 -20 -289 -1 -144 38 -83 -19 -1407 1304 l-1228 1226 -1227 -1227
c-1095 -1093 -1235 -1229 -1290 -1257 -184 -91 -404 -80 -568 28 -34 22 -168
148 -307 288 -232 233 -249 253 -286 331 -89 183 -77 391 31 553 21 31 742
759 1679 1695 1769 1766 1678 1680 1819 1718 72 20 220 20 294 1z"/>
</g>
</svg>
